<svg xmlns="http://www.w3.org/2000/svg" width="64" height="64.307" viewBox="0 0 64 64.307"><g transform="translate(-4.112 -3.489)"><path d="M58.787,12.834A31.873,31.873,0,0,0,8.633,51.284L4.112,67.8,21,63.365a31.838,31.838,0,0,0,15.228,3.879h.013A31.88,31.88,0,0,0,58.787,12.834ZM36.245,61.862h-.011a26.447,26.447,0,0,1-13.48-3.692l-.967-.574L11.763,60.226l2.676-9.774-.63-1A26.485,26.485,0,1,1,36.245,61.862Z" transform="translate(0 0)" fill="#fff" fill-rule="evenodd"/><path d="M47.156,38.134c-.8-.4-4.711-2.324-5.441-2.59s-1.261-.4-1.791.4-2.057,2.591-2.521,3.122-.929.6-1.725.2a21.746,21.746,0,0,1-6.4-3.952,24,24,0,0,1-4.43-5.516c-.464-.8-.049-1.228.349-1.625.358-.357.8-.93,1.194-1.395a5.437,5.437,0,0,0,.8-1.328,1.466,1.466,0,0,0-.066-1.395c-.2-.4-1.791-4.318-2.455-5.912-.646-1.552-1.3-1.342-1.792-1.367-.464-.023-1-.028-1.526-.028a2.925,2.925,0,0,0-2.123,1,8.931,8.931,0,0,0-2.787,6.642c0,3.919,2.853,7.705,3.251,8.237s5.615,8.574,13.6,12.023a45.713,45.713,0,0,0,4.539,1.677,10.912,10.912,0,0,0,5.015.315c1.53-.229,4.711-1.926,5.374-3.786a6.654,6.654,0,0,0,.464-3.786C48.483,38.732,47.952,38.533,47.156,38.134Z" transform="translate(3.617 3.891)" fill="#fff" fill-rule="evenodd"/></g></svg>